<svg xmlns="http://www.w3.org/2000/svg" viewBox="0 0 319 454"><title>Artboard 1</title><rect y="24" width="319" height="45" fill="#89479b"/><rect y="35.5" width="52.9" height="22" fill="#e88024"/><rect x="63.1" y="35.5" width="26.9" height="22" fill="#e88024"/><rect x="100.8" y="35.5" width="96.2" height="22" fill="#e88024"/><rect y="98" width="319" height="45" fill="#89479b"/><rect x="122" y="109.5" width="52.9" height="22" fill="#e88024"/><rect x="185.1" y="109.5" width="26.9" height="22" fill="#e88024"/><rect x="222.8" y="109.5" width="96.2" height="22" fill="#e88024"/><text transform="translate(8 21)" font-size="16" fill="#89479b" font-family="OperatorMono-Bold, Operator Mono" font-weight="700" style="isolation:isolate">flex-start</text><text transform="translate(8 95)" font-size="16" fill="#89479b" font-family="OperatorMono-Bold, Operator Mono" font-weight="700" style="isolation:isolate">flex-end</text><rect y="173" width="319" height="45" fill="#89479b"/><rect x="59.4" y="184.5" width="52.9" height="22" fill="#e88024"/><rect x="122.5" y="184.5" width="26.9" height="22" fill="#e88024"/><rect x="160.2" y="184.5" width="96.2" height="22" fill="#e88024"/><text transform="translate(8 170)" font-size="16" fill="#89479b" font-family="OperatorMono-Bold, Operator Mono" font-weight="700" style="isolation:isolate">center</text><rect x="0.7" y="248" width="319" height="45" fill="#89479b"/><rect y="259.5" width="52.9" height="22" fill="#e88024"/><rect x="127.2" y="259.5" width="26.9" height="22" fill="#e88024"/><rect x="222.8" y="259.5" width="96.2" height="22" fill="#e88024"/><text transform="translate(8.68 245)" font-size="16" fill="#89479b" font-family="OperatorMono-Bold, Operator Mono" font-weight="700" style="isolation:isolate">space-between</text><rect x="1" y="324" width="319" height="45" fill="#89479b"/><rect x="23" y="335.5" width="52.9" height="22" fill="#e88024"/><rect x="123.5" y="335.5" width="26.9" height="22" fill="#e88024"/><rect x="201.1" y="335.5" width="96.2" height="22" fill="#e88024"/><text transform="translate(9.03 321)" font-size="16" fill="#89479b" font-family="OperatorMono-Bold, Operator Mono" font-weight="700" style="isolation:isolate">space-around</text><rect x="1" y="398" width="319" height="45" fill="#89479b"/><rect x="32.95" y="409.5" width="52.9" height="22" fill="#e88024"/><text transform="translate(9.03 395)" font-size="16" fill="#89479b" font-family="OperatorMono-Bold, Operator Mono" font-weight="700" style="isolation:isolate">space-evenly</text><rect x="123.5" y="409.5" width="26.9" height="22" fill="#e88024"/><rect x="185.1" y="409.5" width="96.2" height="22" fill="#e88024"/></svg>